# xmcd
# 
# Track frame offsets:
#   150
#   15439
#   33815
#   51430
#   71419
#   87332
#   103426
#   119644
#   136119
#   151820
#   166869
#   179902
#   196681
#   213567
# 
# Disc length: 3039 seconds
# 
# Revision: 2
# Processed by: cddbd v1.5.1PL2 Copyright (c) Steve Scherf et al.
# Submitted via: Synapstar 1.0 
# 
DISCID=c00bdd0e
DTITLE=Various Artist - SD125
DYEAR=2005
DGENRE=Country
TTITLE0=Jackson, Alan - Monday Morning Church
TTITLE1=Wilson, Gretchen - When I Think About Cheatin
TTITLE2=Big and Rich - Holy Water
TTITLE3=Roberts, Julie - Chance
TTITLE4=Griggs, Andy - If Heaven
TTITLE5=Bates, Jeff - Long Slow Kisses
TTITLE6=Lawrence, Tracy - Sawdust On Her Halo
TTITLE7=Lambert, Miranda - Me And Charlie Talking
TTITLE8=ONeal, Jamie - Trying To Find Atlantis
TTITLE9=Drake, Dusty - I Am The Working Man
TTITLE10=Fairchild, Shelly - You Don't Lie Here Anymore
TTITLE11=Proctor, Rachel - Where I Belong
TTITLE12=Travis, Randy - Four Walls
TTITLE13=Harvick, Kerry - Cowgirls
EXTD=MediaType: Karaoke CD+G Producer: StarDisc
EXTT0=
EXTT1=
EXTT2=
EXTT3=
EXTT4=
EXTT5=
EXTT6=
EXTT7=
EXTT8=
EXTT9=
EXTT10=
EXTT11=
EXTT12=
EXTT13=
PLAYORDER=
